<svg width="50" height="50" viewBox="0 0 50 50" fill="none" xmlns="http://www.w3.org/2000/svg">
<g id="heroicons-solid/hand-thumb-up">
<g id="Union">
<path d="M15.61 38.5415C14.7255 38.5415 13.902 38.0488 13.5783 37.2256C12.8823 35.4554 12.5 33.5275 12.5 31.5103C12.5 27.8663 13.7474 24.5137 15.8384 21.8562C16.1528 21.4566 16.6137 21.2125 17.0878 21.0289C18.0728 20.6476 18.9428 19.9575 19.6127 19.1033C21.2235 17.0495 23.2535 15.3402 25.574 14.1045C27.0785 13.3032 28.3839 12.1129 29.017 10.5303C29.4599 9.42295 29.6875 8.24123 29.6875 7.04854V5.729C29.6875 4.86606 30.3871 4.1665 31.25 4.1665C33.8388 4.1665 35.9375 6.26517 35.9375 8.854C35.9375 11.2532 35.3967 13.5262 34.4305 15.5576C33.8772 16.7208 34.6534 18.229 35.9415 18.229H42.4536C44.5924 18.229 46.5069 19.6748 46.7333 21.8016C46.827 22.6813 46.875 23.5745 46.875 24.479C46.875 30.4115 44.8086 35.8615 41.3563 40.1482C40.5487 41.1509 39.3004 41.6665 38.013 41.6665H29.6464C28.6387 41.6665 27.6377 41.5041 26.6817 41.1854L20.1933 39.0226C19.2373 38.704 18.2363 38.5415 17.2286 38.5415H15.61Z" fill="#0F172A"/>
<path d="M4.85727 22.348C3.73918 25.1851 3.125 28.276 3.125 31.5103C3.125 34.0521 3.50434 36.5053 4.20949 38.8164C4.74982 40.5873 6.46703 41.6665 8.31852 41.6665H10.2097C11.1379 41.6665 11.7112 40.6284 11.3005 39.7961C10.0677 37.2976 9.375 34.4848 9.375 31.5103C9.375 27.9515 10.3664 24.6244 12.0881 21.7899C12.5985 20.9497 12.0292 19.7915 11.0461 19.7915H8.85282C7.11944 19.7915 5.49281 20.7353 4.85727 22.348Z" fill="#0F172A"/>
</g>
</g>
</svg>
