<svg width="16" height="16" viewBox="0 0 16 16" fill="none" xmlns="http://www.w3.org/2000/svg">
<g id="heroicons-solid/phone">
<path id="Vector (Stroke)" fill-rule="evenodd" clip-rule="evenodd" d="M1 3C1 1.89543 1.89543 1 3 1H3.91442C4.488 1 4.98798 1.39037 5.1271 1.94683L5.86429 4.89562C5.98627 5.38353 5.80396 5.89703 5.40162 6.19879L4.5392 6.8456C4.44965 6.91277 4.43018 7.01112 4.45533 7.07979C5.21234 9.14632 6.85368 10.7877 8.92021 11.5447C8.98888 11.5698 9.08724 11.5504 9.1544 11.4608L9.80121 10.5984C10.103 10.196 10.6165 10.0137 11.1044 10.1357L14.0532 10.8729C14.6096 11.012 15 11.512 15 12.0856V13C15 14.1046 14.1046 15 13 15H11.5C5.70101 15 1 10.299 1 4.5V3Z" fill="#A4E9EB"/>
</g>
</svg>
