<svg width="16" height="16" viewBox="0 0 16 16" fill="none" xmlns="http://www.w3.org/2000/svg">
<g id="heroicons-solid/user-circle">
<path id="Union" fill-rule="evenodd" clip-rule="evenodd" d="M12.4569 12.7314C13.7148 11.5461 14.5 9.86474 14.5 8C14.5 4.41015 11.5899 1.5 8 1.5C4.41015 1.5 1.5 4.41015 1.5 8C1.5 9.86474 2.28524 11.5461 3.54308 12.7314C4.70675 13.828 6.27489 14.5 8 14.5C9.72511 14.5 11.2933 13.828 12.4569 12.7314ZM4.09675 11.8749C5.01308 10.7319 6.42107 10 8 10C9.57893 10 10.9869 10.7319 11.9033 11.8749C10.9068 12.8785 9.526 13.5 8 13.5C6.474 13.5 5.09315 12.8785 4.09675 11.8749ZM10.5 6C10.5 7.38071 9.38071 8.5 8 8.5C6.61929 8.5 5.5 7.38071 5.5 6C5.5 4.61929 6.61929 3.5 8 3.5C9.38071 3.5 10.5 4.61929 10.5 6Z" fill="#A4E9EB"/>
</g>
</svg>
